<?xml version="1.0" encoding="UTF-8"?>
<svg version="1.1" xmlns="http://www.w3.org/2000/svg" width="192" height="192">
<path d="M0 0 C63.36 0 126.72 0 192 0 C192 63.36 192 126.72 192 192 C128.64 192 65.28 192 0 192 C0 128.64 0 65.28 0 0 Z " fill="#FEABBD" transform="translate(0,0)"/>
<path d="M0 0 C3.59291073 2.21690236 5.36863866 4.1627544 7 8 C9.22268193 19.60473934 1.22405168 31.8131292 -5 41 C-10.60855714 47.69094193 -16.78896735 53.84460773 -23.05859375 59.91015625 C-23.66127075 60.49566254 -24.26394775 61.08116882 -24.8848877 61.68441772 C-29.84998669 66.5053012 -29.84998669 66.5053012 -32.33959961 68.86645508 C-41.98091682 77.82070503 -41.98091682 77.82070503 -47.27832031 89.65649414 C-48.61806422 94.007036 -51.74059057 96.94952707 -55 100 C-55.50015625 100.48210937 -56.0003125 100.96421875 -56.515625 101.4609375 C-63.5687988 107.33858233 -74.04291609 109.4590639 -83 109 C-86.4375 108 -86.4375 108 -89 107 C-89 105.02 -89 103.04 -89 101 C-91.31 101 -93.62 101 -96 101 C-96 99.02 -96 97.04 -96 95 C-97.65 95 -99.3 95 -101 95 C-103.79432012 89.41135976 -102.64465707 80.66353433 -101.19921875 74.69140625 C-97.65701736 65.33074348 -91.74848058 57.59981943 -82.75 53 C-80.41493824 51.96219478 -78.11889554 51.0382935 -75.68652344 50.25488281 C-72.31094374 48.67813984 -70.27589992 46.63106045 -67.65625 43.984375 C-67.16467407 43.4909259 -66.67309814 42.99747681 -66.16662598 42.48907471 C-65.13115015 41.44689957 -64.09926679 40.40114413 -63.07080078 39.35205078 C-61.5118652 37.76210125 -59.94265001 36.18293497 -58.37109375 34.60546875 C-52.67701622 28.88401585 -52.67701622 28.88401585 -47.3527832 22.82275391 C-44.69913935 19.63904215 -41.92979846 17.17311642 -38.6875 14.625 C-37.7903125 13.91935913 -37.7903125 13.91935913 -36.875 13.19946289 C-26.87154904 5.60792646 -12.86399197 -3.29906805 0 0 Z " fill="#F794AD" transform="translate(144,42)"/>
<path d="M0 0 C3.71062596 2.58775962 6.77959198 5.71235135 9.9375 8.9375 C10.81212891 9.76830078 11.68675781 10.59910156 12.58789062 11.45507812 C19.55894314 18.44789817 19.55894314 18.44789817 19.69140625 23.87109375 C18.78322784 31.88085736 13.66852534 36.69694196 7.76953125 41.75 C6 43 6 43 4 43 C4 41.02 4 39.04 4 37 C1.36 37.33 -1.28 37.66 -4 38 C-3.34 34.7 -2.68 31.4 -2 28 C-2.7425 28.33 -3.485 28.66 -4.25 29 C-7 30 -7 30 -11 30 C-10.505 25.545 -10.505 25.545 -10 21 C-12.97 21.33 -15.94 21.66 -19 22 C-18.125 15.25 -18.125 15.25 -17 13 C-18.98 13.33 -20.96 13.66 -23 14 C-20.14081916 8.10293951 -15.09551348 3.73650756 -9.4375 0.5625 C-3.20241054 -0.8763668 -3.20241054 -0.8763668 0 0 Z " fill="#FEABBD" transform="translate(75,98)"/>
<path d="M0 0 C5.43909855 2.36322105 9.1639623 6.75547305 13.3125 10.875 C14.16134766 11.69097656 15.01019531 12.50695312 15.88476562 13.34765625 C16.68205078 14.13785156 17.47933594 14.92804688 18.30078125 15.7421875 C19.03466064 16.4626123 19.76854004 17.18303711 20.5246582 17.92529297 C22 20 22 20 21.88769531 22.09130859 C20.42897584 25.22779618 17.90823087 27.39956689 15.4375 29.75 C14.65729492 30.50990234 14.65729492 30.50990234 13.86132812 31.28515625 C12.58089916 32.53034405 11.29132446 33.76611502 10 35 C6.43235715 33.48623919 4.16293713 31.39486871 1.453125 28.6484375 C0.60878906 27.79765625 -0.23554687 26.946875 -1.10546875 26.0703125 C-2.41451172 24.73613281 -2.41451172 24.73613281 -3.75 23.375 C-4.63816406 22.4778125 -5.52632813 21.580625 -6.44140625 20.65625 C-8.63216969 18.44192996 -10.81812763 16.22307565 -13 14 C-9.81968878 10.2341894 -6.64858175 6.51561011 -3.125 3.0625 C-2.23167969 2.18271484 -2.23167969 2.18271484 -1.3203125 1.28515625 C-0.66675781 0.64900391 -0.66675781 0.64900391 0 0 Z " fill="#FEABBD" transform="translate(90,80)"/>
</svg>
